<svg version="1" xmlns="http://www.w3.org/2000/svg" width="858.667" height="858.667" viewBox="0 0 644.000000 644.000000"><path d="M280.2 174.7c-5.5 13.5-21.8 52.8-29 70.3-3.3 8-9.8 23.7-14.5 35-36.3 88-77.1 186.8-79.6 192.9-1.7 4.1-3.1 7.5-3.1 7.7 0 .2 110.3.4 245 .4h245v-27H419.5c-123.5 0-224.5-.2-224.5-.5 0-.5 10.3-25.3 33.6-81 7.6-18.2 27.8-66.5 44.9-107.5l31-74.5 169.8-.3L644 190v-25H284.2l-4 9.7zM16 204.8c0 .4 3.2 8.4 7.1 17.8 3.9 9.3 9.3 22.1 11.9 28.4 2.6 6.3 8.4 20.3 13 31 4.5 10.7 11.5 27.6 15.7 37.5 9.9 23.8 25.4 60.7 39.3 93.7l11.3 26.8h36.3l25.9-62.3c14.2-34.2 28.2-67.8 31.1-74.7 2.9-6.9 12.5-30.1 21.4-51.5 8.9-21.5 17-40.9 18-43.3l1.9-4.2h-49.6l-5.1 13.7c-2.8 7.6-8.5 23-12.7 34.3-4.2 11.3-10.9 29.5-15 40.5-28.3 76.8-34.4 92.8-34.9 91.5-.3-.8-6.6-17.7-13.9-37.5-7.4-19.8-17.4-46.6-22.2-59.5-4.7-12.9-13.7-36.9-19.8-53.3L64.6 204H40.3c-13.4 0-24.3.4-24.3.8z"/><path d="M271 320.1c-26.7 63.9-48.8 117-49.2 118-.7 1.8.3 1.9 23.6 1.9h24.3l13.1-30.3 13-30.2 42-.3 41.9-.2 9.9 23.7c5.4 13.1 11 26.7 12.5 30.3l2.7 6.5 24.5.3 24.5.2-10.4-24.7c-5.7-13.7-28-66.8-49.6-118.1L354.6 204h-35.1L271 320.1zm90.6 16.6c-.2.2-11.3.2-24.8.1l-24.6-.3 11.7-33c6.4-18.2 12-33.9 12.5-35 .6-1.5 3.9 7 13.1 33 6.8 19.2 12.3 35.1 12.1 35.2zM458 322v118h44l.2-51.2.3-51.2 36 51.2 36 51.1 26.8.1h26.8l-4.3-5.8c-2.3-3.1-22.3-30.1-44.5-60l-40.2-54.3 14.7-19.2c8.2-10.6 27.6-35.9 43.2-56.2 15.5-20.4 29-37.8 29.8-38.8 1.4-1.6.1-1.7-25.4-1.7l-26.9.1-36 50.2-36 50.2-.3-50.3-.2-50.2h-44v118z"/></svg>